<svg id="Layer_1" enable-background="new 0 0 512 512" height="512" viewBox="0 0 512 512" width="512" xmlns="http://www.w3.org/2000/svg"><g><path d="m492.5 467.208v-244.618c0-4.142-3.357-7.5-7.5-7.5s-7.5 3.358-7.5 7.5v244.41h-15v-297h15v21.126c0 4.142 3.357 7.5 7.5 7.5s7.5-3.358 7.5-7.5v-58.626c0-4.142-3.357-7.5-7.5-7.5h-49.49v-18.286c8.19-1.456 14.434-8.612 14.434-17.214v-10c0-7.135-4.298-13.277-10.437-15.998v-38.002c0-14.061-11.439-25.5-25.5-25.5h-48c-14.061 0-25.5 11.439-25.5 25.5v37.559c-6.732 2.439-11.563 8.878-11.563 16.441v10c0 8.995 6.824 16.421 15.566 17.387v18.113h-42.45v-18.285c8.193-1.453 14.44-8.611 14.44-17.215v-10c0-7.135-4.298-13.276-10.436-15.997v-38.003c0-14.061-11.439-25.5-25.5-25.5h-48c-14.061 0-25.5 11.439-25.5 25.5v37.559c-6.732 2.439-11.564 8.878-11.564 16.441v10c0 8.993 6.821 16.417 15.56 17.386v18.114h-42.44v-18.286c8.191-1.455 14.437-8.611 14.437-17.214v-10c0-7.135-4.298-13.276-10.436-15.997v-38.003c0-14.061-11.439-25.5-25.5-25.5h-48c-14.061 0-25.5 11.439-25.5 25.5v37.558c-6.732 2.439-11.564 8.878-11.564 16.442v10c0 8.994 6.823 16.419 15.563 17.387v18.113h-50.62c-4.142 0-7.5 3.358-7.5 7.5v282.998c0 4.142 3.358 7.5 7.5 7.5s7.5-3.358 7.5-7.5v-245.498h15v297h-15v-18.944c0-4.142-3.358-7.5-7.5-7.5s-7.5 3.358-7.5 7.5v19.153c-10.994 1.48-19.5 10.917-19.5 22.31v11.981c0 5.79 4.71 10.5 10.5 10.5h373.739c4.143 0 7.5-3.358 7.5-7.5s-3.357-7.5-7.5-7.5h-369.239v-7.481c0-4.146 3.373-7.519 7.519-7.519h466.961c4.146 0 7.52 3.373 7.52 7.519v7.481h-80.761c-4.143 0-7.5 3.358-7.5 7.5s3.357 7.5 7.5 7.5h85.261c5.79 0 10.5-4.71 10.5-10.5v-11.981c0-11.393-8.506-20.83-19.5-22.311zm-136.993-441.708c0-5.79 4.71-10.5 10.5-10.5h48c5.79 0 10.5 4.71 10.5 10.5v36.5h-69zm-11.564 54c0-1.378 1.121-2.5 2.5-2.5h86c1.379 0 2.5 1.122 2.5 2.5v10c0 1.378-1.121 2.5-2.5 2.5h-86c-1.379 0-2.5-1.122-2.5-2.5zm15.567 27.5h61v18h-61zm-137.446-81.5c0-5.79 4.71-10.5 10.5-10.5h48c5.79 0 10.5 4.71 10.5 10.5v36.5h-69zm-11.564 54c0-1.378 1.122-2.5 2.5-2.5h86c1.379 0 2.5 1.122 2.5 2.5v10c0 1.378-1.121 2.5-2.5 2.5h-86c-1.378 0-2.5-1.122-2.5-2.5zm15.56 27.5h61v18h-61zm-137.439-81.5c0-5.79 4.71-10.5 10.5-10.5h48c5.79 0 10.5 4.71 10.5 10.5v36.5h-69zm-11.564 54c0-1.378 1.122-2.5 2.5-2.5h86c1.378 0 2.5 1.122 2.5 2.5v10c0 1.378-1.122 2.5-2.5 2.5h-86c-1.378 0-2.5-1.122-2.5-2.5zm15.563 27.5h61v18h-61zm-58.12 48v-15h443v15zm325.01 75.09h61v133.41c0 16.818-13.683 30.5-30.5 30.5s-30.5-13.682-30.5-30.5zm61-15h-61v-45.09h61zm-194.45 15h61v133.41c0 16.818-13.682 30.5-30.5 30.5s-30.5-13.682-30.5-30.5zm61-15h-61v-45.09h61zm-194.44 15h61v133.41c0 16.818-13.682 30.5-30.5 30.5s-30.5-13.682-30.5-30.5zm61-15h-61v-45.09h61zm-89.12-45.09h13.12v193.5c0 25.089 20.411 45.5 45.5 45.5s45.5-20.411 45.5-45.5v-193.5h42.44v193.5c0 25.089 20.411 45.5 45.5 45.5 25.088 0 45.5-20.411 45.5-45.5v-193.5h42.45v193.5c0 25.089 20.411 45.5 45.5 45.5s45.5-20.411 45.5-45.5v-193.5h11.99v297h-383z"/></g></svg>